<svg xmlns="http://www.w3.org/2000/svg" viewBox="0 0 475.93 465.93"><defs><style>.cls-1{opacity:0.49;}.cls-2{fill:#ff860d;stroke:#f7931e;stroke-miterlimit:10;stroke-width:26px;}.cls-3{fill:#107878;}</style></defs><g id="Layer_2" data-name="Layer 2"><g id="Layer_1-2" data-name="Layer 1"><g id="gory"><g class="cls-1"><path class="cls-2" d="M260.26,275.08a8.67,8.67,0,0,0-11.7,3.71l-18.81,36.28a8.67,8.67,0,1,0,15.39,8L264,286.78A8.69,8.69,0,0,0,260.26,275.08Z"/><path class="cls-2" d="M276.47,244.28a8.67,8.67,0,0,0-11.74,3.53l-2.52,4.67a8.68,8.68,0,1,0,15.28,8.23L280,256A8.69,8.69,0,0,0,276.47,244.28Z"/><path class="cls-2" d="M262.17,408.66H74.41a8.68,8.68,0,0,0,0,17.35H262.17a8.68,8.68,0,1,0,0-17.35Z"/><path class="cls-2" d="M376.21,408.66H291.66a8.68,8.68,0,0,0,0,17.35h84.55a8.68,8.68,0,0,0,0-17.35Z"/><path class="cls-2" d="M423.48,408.66H405.7a8.68,8.68,0,0,0,0,17.35h17.78a8.68,8.68,0,0,0,0-17.35Z"/><path class="cls-2" d="M462.93,330.52c0-.14,0-.27,0-.41s0-.26,0-.39l-.06-.39c0-.14,0-.28-.07-.42s-.05-.23-.07-.35-.08-.31-.13-.47l-.09-.28c-.07-.21-.15-.41-.24-.62a.61.61,0,0,0-.05-.12,6.73,6.73,0,0,0-.38-.76v0L403,223.41A8.67,8.67,0,0,0,389,222l-33.89,38.78-58-113.87a8.66,8.66,0,0,0-7.7-4.73h0a8.67,8.67,0,0,0-7.7,4.69l-95,183.93a255.61,255.61,0,0,0-37.45-2.68,142.15,142.15,0,0,0-25.57,2.42V314.28c31.3-5,55.5-37,55.5-75.65,0-42.1-28.78-76.36-64.17-76.36s-64.17,34.26-64.17,76.36c0,38.6,24.2,70.6,55.5,75.65v20.4A233.22,233.22,0,0,0,41.6,365.59a8.68,8.68,0,0,0-3.6,7v71.63a8.67,8.67,0,0,0,8.67,8.67H454.26a8.67,8.67,0,0,0,8.67-8.67V330.52ZM394,242.6l50.07,87.67c-4.47,5.6-16.11,16.94-41.12,24.45l-39.39-77.27ZM289.28,169.86l56.1,110.08,0,0,40.19,78.85a226.13,226.13,0,0,1-39.82,3.25c-44.94,0-74.15-8.85-102.39-17.4-12.43-3.76-25.06-7.58-39-10.6Zm-195.92,104,12.86,12.86v9.85c-21.69-5.14-38.16-29.17-38.16-58,0-32.53,21-59,46.83-59s46.83,26.47,46.83,59c0,28.8-16.47,52.83-38.16,58v-9.84L145,265.29A8.68,8.68,0,0,0,132.75,253l-17.86,17.87-9.26-9.26a8.67,8.67,0,0,0-12.27,12.26Zm-38,161.69V377.25c12-7.8,52.38-31.77,93.79-31.77a237.52,237.52,0,0,1,40.77,3.41h0c17.42,3,32.68,7.62,48.45,12.39,29.45,8.92,59.91,18.14,107.42,18.14,21.76,0,39.63-2.32,54.26-5.9a9.53,9.53,0,0,0,1.14-.29c20.88-5.27,35.05-13.13,44.42-20.41v82.76Z"/><path class="cls-2" d="M255,59.13a57.55,57.55,0,0,0-102.25,0A50,50,0,0,0,104,109.06a8.67,8.67,0,0,0,8.67,8.67H295a8.68,8.68,0,0,0,8.68-8.67A50,50,0,0,0,255,59.13ZM122.53,100.38a32.55,32.55,0,0,1,34.8-23.74,8.66,8.66,0,0,0,9-5.53,40.2,40.2,0,0,1,75,0,8.67,8.67,0,0,0,9,5.53,32.55,32.55,0,0,1,34.8,23.74Z"/></g><path class="cls-3" d="M222.26,247.08a8.67,8.67,0,0,0-11.7,3.71l-18.81,36.28a8.67,8.67,0,1,0,15.39,8L226,258.78A8.69,8.69,0,0,0,222.26,247.08Z"/><path class="cls-3" d="M238.47,216.28a8.67,8.67,0,0,0-11.74,3.53l-2.52,4.67a8.68,8.68,0,1,0,15.28,8.23L242,228A8.69,8.69,0,0,0,238.47,216.28Z"/><path class="cls-3" d="M224.17,380.66H36.41a8.68,8.68,0,0,0,0,17.35H224.17a8.68,8.68,0,1,0,0-17.35Z"/><path class="cls-3" d="M338.21,380.66H253.66a8.68,8.68,0,0,0,0,17.35h84.55a8.68,8.68,0,0,0,0-17.35Z"/><path class="cls-3" d="M385.48,380.66H367.7a8.68,8.68,0,0,0,0,17.35h17.78a8.68,8.68,0,0,0,0-17.35Z"/><path class="cls-3" d="M424.93,302.52c0-.14,0-.27,0-.41s0-.26,0-.39l-.06-.39c0-.14,0-.28-.07-.42s-.05-.23-.07-.35-.08-.31-.13-.47l-.09-.28c-.07-.21-.15-.41-.24-.62a.61.61,0,0,0-.05-.12,6.73,6.73,0,0,0-.38-.76v0L365,195.41A8.67,8.67,0,0,0,351,194l-33.89,38.78-58-113.87a8.66,8.66,0,0,0-7.7-4.73h0a8.67,8.67,0,0,0-7.7,4.69l-95,183.93a255.61,255.61,0,0,0-37.45-2.68,142.15,142.15,0,0,0-25.57,2.42V286.28c31.3-5,55.5-37,55.5-75.65,0-42.1-28.78-76.36-64.17-76.36s-64.17,34.26-64.17,76.36c0,38.6,24.2,70.6,55.5,75.65v20.4A233.22,233.22,0,0,0,3.6,337.59a8.68,8.68,0,0,0-3.6,7v71.63a8.67,8.67,0,0,0,8.67,8.67H416.26a8.67,8.67,0,0,0,8.67-8.67V302.52ZM356,214.6l50.07,87.67c-4.47,5.6-16.11,16.94-41.12,24.45l-39.39-77.27ZM251.28,141.86l56.1,110.08,0,0,40.19,78.85a226.13,226.13,0,0,1-39.82,3.25c-44.94,0-74.15-8.85-102.39-17.4-12.43-3.76-25.06-7.58-39-10.6Zm-195.92,104,12.86,12.86v9.85c-21.69-5.14-38.16-29.17-38.16-58,0-32.53,21-59,46.83-59s46.83,26.47,46.83,59c0,28.8-16.47,52.83-38.16,58v-9.84L107,237.29A8.68,8.68,0,0,0,94.75,225L76.89,242.89l-9.26-9.26a8.67,8.67,0,0,0-12.27,12.26Zm-38,161.69V349.25c12-7.8,52.38-31.77,93.79-31.77a237.52,237.52,0,0,1,40.77,3.41h0c17.42,3,32.68,7.62,48.45,12.39,29.45,8.92,59.91,18.14,107.42,18.14,21.76,0,39.63-2.32,54.26-5.9a9.53,9.53,0,0,0,1.14-.29c20.88-5.27,35.05-13.13,44.42-20.41v82.76Z"/><path class="cls-3" d="M217,31.13a57.55,57.55,0,0,0-102.25,0A50,50,0,0,0,66,81.06a8.67,8.67,0,0,0,8.67,8.67H257a8.68,8.68,0,0,0,8.68-8.67A50,50,0,0,0,217,31.13ZM84.53,72.38a32.55,32.55,0,0,1,34.8-23.74,8.66,8.66,0,0,0,9-5.53,40.2,40.2,0,0,1,75,0,8.67,8.67,0,0,0,9,5.53,32.55,32.55,0,0,1,34.8,23.74Z"/></g></g></g></svg>