<svg xmlns="http://www.w3.org/2000/svg" width="34" height="34" viewBox="0 0 34 34">
  <defs>
    <style>
      .cls-1 {
        fill: #fff;
      }

      .cls-2 {
        fill: #107878;
      }
    </style>
  </defs>
  <g id="Insta-c" transform="translate(-3091 -915)">
    <circle id="Ellipse_37" data-name="Ellipse 37" class="cls-1" cx="17" cy="17" r="17" transform="translate(3091 915)"/>
    <g id="_044-instagram" data-name="044-instagram" transform="translate(3097.461 921.461)">
      <path id="Path_18688" data-name="Path 18688" class="cls-2" d="M11.254,5.838a5.408,5.408,0,1,0,5.408,5.408,5.407,5.407,0,0,0-5.408-5.408Zm0,8.918a3.51,3.51,0,1,1,3.51-3.51A3.509,3.509,0,0,1,11.254,14.756Z" transform="translate(-0.712 -0.711)"/>
      <path id="Path_18689" data-name="Path 18689" class="cls-2" d="M14.884.067c-1.939-.09-6.742-.086-8.683,0a6.3,6.3,0,0,0-4.423,1.7C-.249,3.8.011,6.53.011,10.535c0,4.1-.228,6.768,1.768,8.764,2.035,2.034,4.806,1.768,8.764,1.768,4.061,0,5.463,0,6.9-.553,1.952-.758,3.426-2.5,3.57-5.637.091-1.94.086-6.742,0-8.683-.174-3.7-2.16-5.944-6.126-6.126Zm3.069,17.891c-1.329,1.329-3.172,1.21-7.437,1.21-4.391,0-6.152.065-7.437-1.223-1.48-1.473-1.212-3.838-1.212-7.424,0-4.852-.5-8.347,4.372-8.6,1.119-.04,1.448-.053,4.265-.053l.04.026c4.68,0,8.352-.49,8.572,4.379.05,1.111.061,1.445.061,4.257,0,4.34.082,6.112-1.224,7.424Z" transform="translate(0 0)"/>
      <circle id="Ellipse_30" data-name="Ellipse 30" class="cls-2" cx="1.264" cy="1.264" r="1.264" transform="translate(14.901 3.65)"/>
    </g>
  </g>
</svg>
