<svg xmlns="http://www.w3.org/2000/svg" viewBox="0 0 455.4 339.56"><defs><style>.cls-1{fill:#ff860d;stroke:#f7931e;stroke-miterlimit:10;stroke-width:26px;opacity:0.49;}.cls-2{fill:#107878;}</style></defs><g id="Layer_2" data-name="Layer 2"><g id="Layer_1-2" data-name="Layer 1"><g id="lozko"><path class="cls-1" d="M433.61,80.69H398.45a8.79,8.79,0,0,0-8.8,8.78v61.47H177.78a44,44,0,0,0-43.07-35.13h-44v-79A8.79,8.79,0,0,0,82,28H46.79A8.79,8.79,0,0,0,38,36.78v281a8.79,8.79,0,0,0,8.79,8.78H82a8.79,8.79,0,0,0,8.79-8.78V291.44h26.37a8.78,8.78,0,1,0,0-17.56H90.75V256.31h298.9v17.57H169.87a8.78,8.78,0,1,0,0,17.56H389.65v26.34a8.79,8.79,0,0,0,8.8,8.78h35.16a8.78,8.78,0,0,0,8.79-8.78V89.47A8.78,8.78,0,0,0,433.61,80.69ZM73.17,124.59V309H55.58V45.56H73.17Zm17.58,8.79h44a26.41,26.41,0,0,1,24.86,17.56H90.75Zm87.91,105.37H90.75V168.5h87.91Zm211-52.69H363.28a8.79,8.79,0,1,0,0,17.57h26.37v35.12H196.24V168.5H389.65ZM424.82,309H407.24V98.25h17.58Z"/><path class="cls-2" d="M395.61,52.69H360.45a8.79,8.79,0,0,0-8.8,8.78v61.47H139.78A44,44,0,0,0,96.71,87.81h-44v-79A8.79,8.79,0,0,0,44,0H8.79A8.79,8.79,0,0,0,0,8.78v281a8.79,8.79,0,0,0,8.79,8.78H44a8.79,8.79,0,0,0,8.79-8.78V263.44H79.12a8.78,8.78,0,1,0,0-17.56H52.75V228.31h298.9v17.57H131.87a8.78,8.78,0,1,0,0,17.56H351.65v26.34a8.79,8.79,0,0,0,8.8,8.78h35.16a8.78,8.78,0,0,0,8.79-8.78V61.47A8.78,8.78,0,0,0,395.61,52.69ZM35.17,96.59V281H17.58V17.56H35.17Zm17.58,8.79h44a26.41,26.41,0,0,1,24.86,17.56H52.75Zm87.91,105.37H52.75V140.5h87.91Zm211-52.69H325.28a8.79,8.79,0,1,0,0,17.57h26.37v35.12H158.24V140.5H351.65ZM386.82,281H369.24V70.25h17.58Z"/></g></g></g></svg>