<svg xmlns="http://www.w3.org/2000/svg" viewBox="0 0 465.86 405.8"><defs><style>.cls-1{fill:#ff860d;stroke:#f7931e;stroke-miterlimit:10;stroke-width:26px;opacity:0.49;}.cls-2{fill:#107878;}</style></defs><g id="Layer_2" data-name="Layer 2"><g id="Layer_1-2" data-name="Layer 1"><g id="reka"><path class="cls-1" d="M451.78,326.93c-4.38-16.33-21.28-26.23-38.48-22.54L405.7,306a205.13,205.13,0,0,0-13-32.34l-.15-.29c-10.63-20.77-24.44-38-41.31-51.42a146.72,146.72,0,0,0-44.88-24.31,152.61,152.61,0,0,0,6.2-29.55c0-.38.07-.76.11-1.14,4.77.14,9.13.38,13.13.61,4.94.28,9.21.52,13.29.52h0c26.53,0,37.68-11.75,56.77-59.85a8.09,8.09,0,0,0-7.53-11.09c-7.83,0-14.63-.39-20.63-.73-4.94-.28-9.22-.52-13.29-.52-19.89,0-31.13,6.6-43.55,30.15a123.53,123.53,0,0,0-14.71-38.77C277.17,39.66,266,28,239.57,28c-4.07,0-8.34.24-13.29.52-6,.34-12.8.72-20.63.72a8.11,8.11,0,0,0-7.53,11.1c19.1,48.1,30.24,59.85,56.78,59.85,4.07,0,8.34-.24,13.29-.52,4.77-.27,10.05-.57,15.94-.68,10.75,19.86,14.9,42.32,12.34,66.84a135.68,135.68,0,0,1-5.76,27.44,176.88,176.88,0,0,0-19-3.28c-46.76-5.45-95,8.06-110,24-3.71,0-7.65,0-11.88,0H116.91V208.1a8.11,8.11,0,0,0-8.11-8.1H46.1a8.1,8.1,0,0,0-8.1,8.1V339.51a8.1,8.1,0,0,0,8.1,8.1h62.7a8.11,8.11,0,0,0,8.11-8.1v-5.83h10.38l88.16,56.1a8.07,8.07,0,0,0,4.21,1.26l107.73,1.76h.21a8.48,8.48,0,0,0,.88-.06l.25,0c.26,0,.51-.09.76-.15a.61.61,0,0,0,.13,0l99.71-26.71A31.78,31.78,0,0,0,451.78,326.93Zm-97.4-214.81c3.62,0,7.68.23,12.38.49,3,.17,6.16.35,9.57.49-15.75,37.1-23.26,38.79-37.26,38.79h0c-3.62,0-7.68-.23-12.38-.49-3-.17-6.16-.35-9.58-.49C332.86,113.81,340.37,112.12,354.38,112.12Zm-87.1-28.63c-4.7.26-8.77.49-12.38.49-14,0-21.52-1.69-37.28-38.79,3.41-.14,6.59-.32,9.57-.49,4.71-.26,8.77-.49,12.39-.49,14,0,21.51,1.69,37.27,38.79C273.44,83.14,270.26,83.32,267.28,83.49ZM100.7,331.41H54.21V216.21H100.7ZM203.76,210.94a178.61,178.61,0,0,1,66.07-4.85,158.55,158.55,0,0,1,23.38,4.49,8.78,8.78,0,0,0,1,.27c28.18,7.91,58.11,25.35,79.38,61.59A145.56,145.56,0,0,1,346,277a8.11,8.11,0,0,0,.59,16.19l.62,0a157.57,157.57,0,0,0,34-6.09,191.26,191.26,0,0,1,8.6,22.34l-59.87,12.82-36.2-5.95A31.32,31.32,0,0,0,286,283.69l-11.21-11.26q-10.94-11-21.89-22c-17.76-17.76-28.76-27-43.19-31.83A83.74,83.74,0,0,0,191.32,215,129,129,0,0,1,203.76,210.94ZM425.14,350.15l-98.62,26.43-104.3-1.7L134,318.74a8.08,8.08,0,0,0-4.35-1.27H116.9V230.14h32.94c5.77,0,11,0,15.73,0h.12c41.61.31,47.27,3.24,75.77,31.74q10.95,10.95,21.86,21.94l11.22,11.28a15.05,15.05,0,0,1,.25,21.48c-6,6-15.07,6.36-23,.83l-37.46-26a8.1,8.1,0,1,0-9.25,13.3l37.46,26a36.85,36.85,0,0,0,20.95,6.87A31.7,31.7,0,0,0,283,331l45.83,7.54a8,8,0,0,0,3-.07l84.9-18.19c8.9-1.9,17.25,2.78,19.43,10.89A15.56,15.56,0,0,1,425.14,350.15Z"/><path class="cls-2" d="M413.78,298.93c-4.38-16.33-21.28-26.23-38.48-22.54L367.7,278a205.13,205.13,0,0,0-13-32.34l-.15-.29c-10.63-20.77-24.44-38-41.31-51.42a146.72,146.72,0,0,0-44.88-24.31,152.61,152.61,0,0,0,6.2-29.55c0-.38.07-.76.11-1.14,4.77.14,9.13.38,13.13.61,4.94.28,9.21.52,13.29.52h0c26.53,0,37.68-11.75,56.77-59.85a8.09,8.09,0,0,0-7.53-11.09c-7.83,0-14.63-.39-20.63-.73-4.94-.28-9.22-.52-13.29-.52-19.89,0-31.13,6.6-43.55,30.15a123.53,123.53,0,0,0-14.71-38.77C239.17,11.66,228,0,201.57,0c-4.07,0-8.34.24-13.29.52-6,.34-12.8.72-20.63.72a8.11,8.11,0,0,0-7.53,11.1c19.1,48.1,30.24,59.85,56.78,59.85,4.07,0,8.34-.24,13.29-.52,4.77-.27,10.05-.57,15.94-.68,10.75,19.86,14.9,42.32,12.34,66.84a135.68,135.68,0,0,1-5.76,27.44,176.88,176.88,0,0,0-19-3.28c-46.76-5.45-95,8.06-110,24-3.71,0-7.65,0-11.88,0H78.91V180.1A8.11,8.11,0,0,0,70.8,172H8.1A8.1,8.1,0,0,0,0,180.1V311.51a8.1,8.1,0,0,0,8.1,8.1H70.8a8.11,8.11,0,0,0,8.11-8.1v-5.83H89.29l88.16,56.1a8.07,8.07,0,0,0,4.21,1.26l107.73,1.76h.21a8.48,8.48,0,0,0,.88-.06l.25,0c.26,0,.51-.09.76-.15a.61.61,0,0,0,.13,0l99.71-26.71A31.78,31.78,0,0,0,413.78,298.93ZM316.38,84.12c3.62,0,7.68.23,12.38.49,3,.17,6.16.35,9.57.49-15.75,37.1-23.26,38.79-37.26,38.79h0c-3.62,0-7.68-.23-12.38-.49-3-.17-6.16-.35-9.58-.49C294.86,85.81,302.37,84.12,316.38,84.12Zm-87.1-28.63c-4.7.26-8.77.49-12.38.49-14,0-21.52-1.69-37.28-38.79,3.41-.14,6.59-.32,9.57-.49,4.71-.26,8.77-.49,12.39-.49,14,0,21.51,1.69,37.27,38.79C235.44,55.14,232.26,55.32,229.28,55.49ZM62.7,303.41H16.21V188.21H62.7ZM165.76,182.94a178.61,178.61,0,0,1,66.07-4.85,158.55,158.55,0,0,1,23.38,4.49,8.78,8.78,0,0,0,1,.27c28.18,7.91,58.11,25.35,79.38,61.59A145.56,145.56,0,0,1,308,249a8.11,8.11,0,0,0,.59,16.19l.62,0a157.57,157.57,0,0,0,34-6.09,191.26,191.26,0,0,1,8.6,22.34l-59.87,12.82-36.2-5.95A31.32,31.32,0,0,0,248,255.69l-11.21-11.26q-10.94-11-21.89-22c-17.76-17.76-28.76-27-43.19-31.83A83.74,83.74,0,0,0,153.32,187,129,129,0,0,1,165.76,182.94ZM387.14,322.15l-98.62,26.43-104.3-1.7L96,290.74a8.08,8.08,0,0,0-4.35-1.27H78.9V202.14h32.94c5.77,0,11,0,15.73,0h.12c41.61.31,47.27,3.24,75.77,31.74q10.95,11,21.86,21.94l11.22,11.28a15.05,15.05,0,0,1,.25,21.48c-6,6-15.07,6.36-23,.83l-37.46-26a8.1,8.1,0,1,0-9.25,13.3l37.46,26a36.85,36.85,0,0,0,21,6.87A31.7,31.7,0,0,0,245,303l45.83,7.54a8,8,0,0,0,3-.07l84.9-18.19c8.9-1.9,17.25,2.78,19.43,10.89A15.56,15.56,0,0,1,387.14,322.15Z"/></g></g></g></svg>