<svg xmlns="http://www.w3.org/2000/svg" viewBox="0 0 407.76 466.19"><defs><style>.cls-1{fill:#ff860d;stroke:#f7931e;stroke-miterlimit:10;stroke-width:26px;opacity:0.49;}.cls-2{fill:#107878;}</style></defs><g id="Layer_2" data-name="Layer 2"><g id="Layer_1-2" data-name="Layer 1"><g id="skoczek"><path class="cls-1" d="M389.06,202.17a8.35,8.35,0,0,0-10.55,5.27,154.94,154.94,0,0,1-73.32,87.43L173.61,366.29l-27.06-18A473.29,473.29,0,0,1,256.32,153c.62-.61,1.21-1.24,1.76-1.88,4.05-4.29,8.28-8.59,12.6-12.82a55.49,55.49,0,0,0,15.13,2.1c1.27,0,2.55,0,3.83-.13A56.2,56.2,0,1,0,229.81,88a58,58,0,0,0,.8,6.35c-4.34,4.22-8.67,8.56-12.91,13l-66.22,30.68a8.33,8.33,0,1,0,7,15.12l67.63-31.32,3.88-1.8A13.07,13.07,0,0,1,245,122.77a12.74,12.74,0,0,1,2.4,3.53,13.16,13.16,0,0,1-1.69,13.7c-.45.47-.88.94-1.3,1.39a13,13,0,0,1-3.37,2.25l-140.35,65a12.68,12.68,0,0,1-5.45,1.21A13.06,13.06,0,0,1,89.67,185l28.25-13.09a8.34,8.34,0,0,0-7-15.13L82.65,169.82a29.74,29.74,0,0,0,12.54,56.72,29.38,29.38,0,0,0,12.49-2.77l34-15.73q-2.52,4.31-4.94,8.65a528.32,528.32,0,0,0-58.9,166,29.77,29.77,0,0,0,11.82,29.19L42.36,437.53a8.34,8.34,0,0,0,8,14.65l67.57-36.68A29.48,29.48,0,0,0,124.4,412l.49-.27L313.15,309.52a171.59,171.59,0,0,0,81.18-96.8A8.35,8.35,0,0,0,389.06,202.17ZM247.83,94.88s0,0,0,0v0a39.54,39.54,0,0,1,35.47-50.05c.89-.06,1.78-.09,2.66-.09a39.53,39.53,0,0,1,2.6,79,39,39,0,0,1-17-2.61,39.54,39.54,0,0,1-23.71-26.16ZM116.06,397.53h0l-.21.12L111,400.28a13,13,0,0,1-16.75-14.72A511.57,511.57,0,0,1,151.29,224.8c5.56-10,11.52-19.86,17.72-29.44L217.21,173a490.17,490.17,0,0,0-88.35,176.75,8.32,8.32,0,0,0,3.45,9.08L157,375.29Z"/><path class="cls-2" d="M351.06,174.17a8.35,8.35,0,0,0-10.55,5.27,154.94,154.94,0,0,1-73.32,87.43L135.61,338.29l-27.06-18A473.29,473.29,0,0,1,218.32,125c.62-.61,1.21-1.24,1.76-1.88,4-4.29,8.28-8.59,12.6-12.82a55.49,55.49,0,0,0,15.13,2.1c1.27,0,2.55,0,3.83-.13A56.2,56.2,0,1,0,191.81,60a58,58,0,0,0,.8,6.35c-4.34,4.22-8.67,8.56-12.91,13l-66.22,30.68a8.33,8.33,0,1,0,7,15.12l67.63-31.32,3.88-1.8A13.07,13.07,0,0,1,207,94.77a12.74,12.74,0,0,1,2.4,3.53,13.16,13.16,0,0,1-1.69,13.7c-.45.47-.88.94-1.3,1.39a13,13,0,0,1-3.37,2.25l-140.35,65a12.68,12.68,0,0,1-5.45,1.21A13.06,13.06,0,0,1,51.67,157l28.25-13.09a8.34,8.34,0,0,0-7-15.13L44.65,141.82a29.74,29.74,0,0,0,12.54,56.72,29.38,29.38,0,0,0,12.49-2.77l34-15.73q-2.52,4.31-4.94,8.65a528.32,528.32,0,0,0-58.9,166,29.77,29.77,0,0,0,11.82,29.19L4.36,409.53a8.34,8.34,0,0,0,8,14.65L79.89,387.5A29.48,29.48,0,0,0,86.4,384l.49-.27L275.15,281.52a171.59,171.59,0,0,0,81.18-96.8A8.35,8.35,0,0,0,351.06,174.17ZM209.83,66.88s0,0,0,0v0a39.54,39.54,0,0,1,35.47-50c.89-.06,1.78-.09,2.66-.09a39.53,39.53,0,0,1,2.6,79,39,39,0,0,1-17-2.61,39.54,39.54,0,0,1-23.71-26.16ZM78.06,369.53h0l-.21.12L73,372.28a13,13,0,0,1-16.75-14.72A511.57,511.57,0,0,1,113.29,196.8c5.56-10,11.52-19.86,17.72-29.44L179.21,145A490.17,490.17,0,0,0,90.86,321.78a8.32,8.32,0,0,0,3.45,9.08L119,347.29Z"/></g></g></g></svg>