<svg xmlns="http://www.w3.org/2000/svg" viewBox="0 0 426.61 474.74"><defs><style>.cls-1{fill:#ff860d;stroke:#f7931e;stroke-miterlimit:10;stroke-width:26px;opacity:0.49;}.cls-2{fill:#107878;}</style></defs><g id="Layer_2" data-name="Layer 2"><g id="Layer_1-2" data-name="Layer 1"><g id="warzywa"><path class="cls-1" d="M393.18,282.81a124.77,124.77,0,0,0-52-41.61l-11.22-6.13,5.92-19.37a8.47,8.47,0,0,0-10.5-10.6l-24.46,7.22a74.83,74.83,0,0,1,6.45-11.85l2.84-4.27a8.47,8.47,0,1,0-14.09-9.4l-2.85,4.27a92.43,92.43,0,0,0-11.5,24.27L247,205.1a8.47,8.47,0,0,0-10.5,10.6l5.92,19.37-11.22,6.13a130,130,0,0,0-25.7,14.85l3.33-17.19A70.79,70.79,0,0,0,190.31,176c13.24-8.44,23.84-18.5,31.59-30,27.38-40.64,16.3-94.79,15.81-97.08a8.48,8.48,0,0,0-9.77-6.58c-1.34.24-30.21,5.54-56.51,23.79a158.92,158.92,0,0,0-26.38-35.75,8.47,8.47,0,0,0-11.77,0,158.71,158.71,0,0,0-26.37,35.75C80.6,47.88,51.73,42.58,50.39,42.34a8.48,8.48,0,0,0-9.77,6.58c-.48,2.29-11.57,56.44,15.82,97.08,7.75,11.5,18.35,21.56,31.58,30a70.81,70.81,0,0,0-18.56,62.86L107.61,435.7c3,15.58,15.7,26,31.56,26s28.54-10.46,31.56-26l6-30.7c22.24,33.95,63,56.74,109.51,56.74,70.26,0,127.42-52,127.42-115.93A108.16,108.16,0,0,0,393.18,282.81ZM256.64,246.62a8.48,8.48,0,0,0,4-9.91l-3.33-10.9L278.3,232a93.34,93.34,0,0,0-.58,10.34,8.48,8.48,0,0,0,16.95,0,76.7,76.7,0,0,1,.76-10.74L315,225.81l-3.33,10.9a8.48,8.48,0,0,0,4,9.91l8.79,4.81-18.26,1.49a8.47,8.47,0,0,0-5.67,2.85l-14.42,16.39-14.41-16.39a8.47,8.47,0,0,0-5.67-2.85l-18.26-1.49Zm-80.36-83.28c.23-.5.45-1,.67-1.5s.54-1.28.8-1.92.49-1.21.73-1.81c.3-.76.6-1.53.88-2.29.16-.43.31-.87.47-1.3.21-.6.43-1.19.63-1.79s.3-.91.45-1.37.38-1.16.56-1.74.28-.9.41-1.36.35-1.18.51-1.77l.36-1.3c.17-.64.33-1.28.49-1.92.09-.38.19-.76.28-1.14.21-.9.41-1.8.59-2.69l.09-.4c.2-1,.39-2,.56-3,.06-.35.11-.69.16-1,.11-.68.22-1.35.31-2,.06-.4.11-.79.16-1.18.08-.63.16-1.26.23-1.88l.12-1.2c.06-.63.12-1.26.16-1.89,0-.38.07-.77.09-1.15,0-.68.08-1.36.11-2,0-.32,0-.65,0-1,0-1,.05-2,.05-3q0-1.15,0-2.31v-.06a106.31,106.31,0,0,0-7.47-35.57C194.47,70.18,212.19,64,222.4,61.1c1.73,15.69,2.87,49.58-14.55,75.43-7.37,10.93-18,20.41-31.64,28.22l-.43-.27C176,164.1,176.12,163.72,176.28,163.34Zm-67.14-46.26,0-.81c0-.63.07-1.25.11-1.88,0-.28,0-.57.07-.85.05-.68.12-1.36.19-2l.06-.58c.11-.9.22-1.79.36-2.69,0,0,0-.06,0-.09.13-.86.28-1.72.43-2.57l.09-.45c.14-.77.3-1.53.46-2.29,0-.12,0-.24.08-.37,5.25-23.79,19.88-43.68,28.15-53.44a145.41,145.41,0,0,1,21.41,33.44s0,.07,0,.11A103.16,103.16,0,0,1,167,101.18c0,.16.07.32.11.48.14.61.27,1.23.4,1.84.05.24.1.48.14.71.12.58.23,1.15.33,1.72l.15.88c.12.74.23,1.48.34,2.22.08.58.16,1.15.23,1.74,0,.36.07.72.11,1.08,0,.52.11,1.05.15,1.58,0,.35.05.69.08,1,0,.58.07,1.16.1,1.74,0,.29,0,.59,0,.88,0,.87.05,1.75.05,2.63s0,1.66,0,2.5c0,.27,0,.54,0,.81l-.09,1.72c0,.31-.05.62-.08.94,0,.54-.09,1.08-.14,1.62,0,.32-.07.64-.1,1-.06.55-.13,1.11-.21,1.66,0,.3-.07.61-.12.91-.09.62-.19,1.25-.29,1.87l-.12.69c-.3,1.74-.67,3.48-1.08,5.22l-.18.7c-.16.64-.32,1.29-.5,1.93-.07.28-.15.56-.23.83-.17.62-.35,1.23-.53,1.84-.09.28-.17.56-.26.84-.2.64-.41,1.28-.62,1.92l-.24.73c-.26.76-.54,1.53-.82,2.3,0,.11-.08.23-.13.34q-1,2.73-2.21,5.47L161,156c-.22.51-.46,1-.69,1.53l-.7-.22a70.91,70.91,0,0,0-40.88,0l-.7.22-.69-1.52c-.07-.18-.15-.35-.23-.52-.79-1.83-1.53-3.65-2.2-5.46l-.14-.38c-.28-.76-.55-1.51-.81-2.27-.08-.25-.16-.5-.25-.75-.21-.63-.41-1.26-.61-1.89-.09-.29-.18-.57-.26-.86-.19-.6-.36-1.21-.53-1.81l-.24-.86c-.17-.63-.33-1.27-.49-1.9l-.18-.72c-.21-.86-.4-1.73-.58-2.59h0c-.19-.87-.35-1.74-.51-2.61,0-.24-.07-.47-.11-.71-.11-.62-.2-1.24-.29-1.86,0-.3-.09-.61-.13-.92-.07-.55-.14-1.1-.2-1.64,0-.33-.07-.65-.1-1-.06-.53-.11-1.07-.15-1.61,0-.32,0-.63-.07-1q-.06-.85-.09-1.71c0-.27,0-.54,0-.81,0-.84,0-1.67,0-2.5S109.11,118,109.14,117.08ZM70.49,136.53C53.07,110.68,54.2,76.79,55.93,61.1,66.14,64,83.86,70.18,99.65,81.77a106.06,106.06,0,0,0-7.47,35.57v.06q0,1.16,0,2.31,0,1.5.06,3c0,.32,0,.65,0,1,0,.68.06,1.36.11,2,0,.38.05.77.08,1.15,0,.63.1,1.26.17,1.89,0,.4.08.79.12,1.19.07.63.15,1.26.23,1.89L93.1,133c.1.68.21,1.36.32,2,0,.34.1.67.16,1q.26,1.51.57,3l.06.28c.19.92.39,1.85.61,2.77l.27,1.11c.17.65.33,1.3.5,1.95.11.43.23.85.35,1.27.17.6.34,1.21.52,1.81.13.44.26.88.4,1.33s.38,1.18.57,1.77l.44,1.34c.21.61.43,1.23.65,1.84l.45,1.25q.45,1.22.93,2.43c.21.53.43,1,.64,1.58.28.68.56,1.36.85,2,.21.49.43,1,.65,1.46s.34.78.52,1.17l-.44.27C88.48,156.94,77.85,147.47,70.49,136.53Zm81.84,163.4H169.1a106.31,106.31,0,0,0-10.23,41.58c0,.1,0,.21,0,.31-.05,1.33-.08,2.66-.08,4s0,2.57.07,3.84c0,.35,0,.71.05,1.06,0,1.07.11,2.14.19,3.2,0,.23,0,.46,0,.69.1,1.21.23,2.41.37,3.61.05.43.1.87.16,1.31.11.83.23,1.67.36,2.5.07.45.13.9.21,1.35.17,1.07.37,2.12.58,3.18.12.62.26,1.25.4,1.87s.23,1,.35,1.55q.85,3.72,2,7.38c0,.11.07.22.1.33.22.68.42,1.37.65,2L154.1,432.48c-1.76,9.08-8.87,12.32-14.93,12.32s-13.17-3.24-14.93-12.32L110,359.06h20.07a8.47,8.47,0,0,0,0-16.94H106.73L86.9,239.79h52.2a8.48,8.48,0,0,0,0-16.95h-54a53.85,53.85,0,0,1,22-41.07l.39-.26a53.59,53.59,0,0,1,9.72-5.57h0c1-.43,1.92-.82,2.88-1.18l.45-.17,1-.37c.65-.22,1.31-.44,2-.64h0a53.93,53.93,0,0,1,31.13,0h0c.67.2,1.32.42,2,.64l1,.37.45.17c1,.36,1.92.75,2.89,1.18h0a53.26,53.26,0,0,1,9.72,5.57l.4.26a53.9,53.9,0,0,1,21,53.86l-7.84,40.44,0,0c-.08.1-.15.2-.23.29-.82,1-1.61,2-2.39,3l-.07.09q-1.33,1.74-2.59,3.51H152.33a8.47,8.47,0,1,0,0,16.94ZM286.19,444.8c-49.49,0-91.48-29.31-105.49-69.58,0,0,0,0,0-.06q-.69-2-1.29-4l-.33-1.16c-.17-.59-.34-1.19-.49-1.79-.22-.86-.43-1.73-.63-2.59-.11-.49-.21-1-.32-1.47-.14-.67-.27-1.34-.39-2-.08-.39-.15-.78-.22-1.18-.17-1-.33-2-.46-3-.05-.36-.1-.72-.14-1.08-.12-.95-.23-1.9-.31-2.85,0-.17,0-.34,0-.5-.1-1.11-.16-2.23-.22-3.35l0-.86c-.05-1.15-.08-2.3-.08-3.45s0-2.36.08-3.53c0-.52,0-1,.08-1.56s.07-1.08.11-1.61c2.23-29,18.82-55.74,44.6-72.9l33,2.69c-35.86,11.72-61,42.14-61,76.91a72.72,72.72,0,0,0,1.12,12.68,8.47,8.47,0,1,0,16.68-3,55.41,55.41,0,0,1-.86-9.72c0-31.34,26.63-58.3,62.53-64l7.71,8.76a8.45,8.45,0,0,0,12.71,0l18.52-21.05,40.73-3.32c27.76,18.48,44.87,48.07,44.87,79.6C396.67,400.39,347.11,444.8,286.19,444.8Z"/><path class="cls-2" d="M355.18,254.81a124.77,124.77,0,0,0-52-41.61l-11.22-6.13,5.92-19.37a8.47,8.47,0,0,0-10.5-10.6l-24.46,7.22a74.83,74.83,0,0,1,6.45-11.85l2.84-4.27a8.47,8.47,0,1,0-14.09-9.4l-2.85,4.27a92.43,92.43,0,0,0-11.5,24.27L209,177.1a8.47,8.47,0,0,0-10.5,10.6l5.92,19.37-11.22,6.13a130,130,0,0,0-25.7,14.85l3.33-17.19A70.79,70.79,0,0,0,152.31,148c13.24-8.44,23.84-18.5,31.59-30,27.38-40.64,16.3-94.79,15.81-97.08a8.48,8.48,0,0,0-9.77-6.58c-1.34.24-30.21,5.54-56.51,23.79A158.92,158.92,0,0,0,107.05,2.38a8.47,8.47,0,0,0-11.77,0A158.71,158.71,0,0,0,68.91,38.13C42.6,19.88,13.73,14.58,12.39,14.34a8.48,8.48,0,0,0-9.77,6.58C2.14,23.21-8.95,77.36,18.44,118c7.75,11.5,18.35,21.56,31.58,30a70.81,70.81,0,0,0-18.56,62.86L69.61,407.7c3,15.58,15.7,26,31.56,26s28.54-10.46,31.56-26l6-30.7c22.24,33.95,63,56.74,109.51,56.74,70.26,0,127.42-52,127.42-115.93A108.16,108.16,0,0,0,355.18,254.81ZM218.64,218.62a8.48,8.48,0,0,0,4-9.91l-3.33-10.9,21,6.18a93.34,93.34,0,0,0-.58,10.34,8.48,8.48,0,0,0,17,0,76.7,76.7,0,0,1,.76-10.74L277,197.81l-3.33,10.9a8.48,8.48,0,0,0,4,9.91l8.79,4.81-18.26,1.49a8.47,8.47,0,0,0-5.67,2.85l-14.42,16.39-14.41-16.39a8.47,8.47,0,0,0-5.67-2.85l-18.26-1.49Zm-80.36-83.28c.23-.5.45-1,.67-1.5s.54-1.28.8-1.92.49-1.21.73-1.81c.3-.76.6-1.53.88-2.29.16-.43.31-.87.47-1.3.21-.6.43-1.19.63-1.79s.3-.91.45-1.37.38-1.16.56-1.74.28-.9.41-1.36.35-1.18.51-1.77l.36-1.3c.17-.64.33-1.28.49-1.92.09-.38.19-.76.28-1.14.21-.9.41-1.8.59-2.69l.09-.4c.2-1,.39-2,.56-3,.06-.35.11-.69.16-1,.11-.68.22-1.35.31-2,.06-.4.11-.79.16-1.18.08-.63.16-1.26.23-1.88l.12-1.2c.06-.63.12-1.26.16-1.89,0-.38.07-.77.09-1.15,0-.68.08-1.36.11-2,0-.32,0-.65,0-1,0-1,.05-2,.05-3q0-1.15,0-2.31v-.06a106.31,106.31,0,0,0-7.47-35.57C156.47,42.18,174.19,36,184.4,33.1c1.73,15.69,2.87,49.58-14.55,75.43-7.37,10.93-18,20.41-31.64,28.22l-.43-.27C138,136.1,138.12,135.72,138.28,135.34ZM71.14,89.08l0-.81c0-.63.07-1.25.11-1.88,0-.28,0-.57.07-.85.05-.68.12-1.36.19-2l.06-.58c.11-.9.22-1.79.36-2.69,0,0,0-.06,0-.09.13-.86.28-1.72.43-2.57l.09-.45c.14-.77.3-1.53.46-2.29,0-.12,0-.24.08-.37C78.28,50.67,92.91,30.78,101.18,21a145.41,145.41,0,0,1,21.41,33.44s0,.07,0,.11A103.16,103.16,0,0,1,129,73.18c0,.16.07.32.11.48.14.61.27,1.23.4,1.84.05.24.1.48.14.71.12.58.23,1.15.33,1.72l.15.88c.12.74.23,1.48.34,2.22.08.58.16,1.15.23,1.74,0,.36.07.72.11,1.08,0,.52.11,1.05.15,1.58,0,.35.05.69.08,1,0,.58.07,1.16.1,1.74,0,.29,0,.59,0,.88,0,.87.05,1.75.05,2.63s0,1.66,0,2.5c0,.27,0,.54,0,.81l-.09,1.72c0,.31-.05.62-.08.94,0,.54-.09,1.08-.14,1.62,0,.32-.07.64-.1,1-.06.55-.13,1.11-.21,1.66,0,.3-.07.61-.12.91-.09.62-.19,1.25-.29,1.87l-.12.69c-.3,1.74-.67,3.48-1.08,5.22l-.18.7c-.16.64-.32,1.29-.5,1.93-.07.28-.15.56-.23.83-.17.62-.35,1.23-.53,1.84-.09.28-.17.56-.26.84-.2.64-.41,1.28-.62,1.92l-.24.73c-.26.76-.54,1.53-.82,2.3,0,.11-.08.23-.13.34q-1,2.73-2.21,5.47L123,128c-.22.51-.46,1-.69,1.53l-.7-.22a70.91,70.91,0,0,0-40.88,0l-.7.22L79.34,128c-.07-.18-.15-.35-.23-.52-.79-1.83-1.53-3.65-2.2-5.46l-.14-.38c-.28-.76-.55-1.51-.81-2.27-.08-.25-.16-.5-.25-.75-.21-.63-.41-1.26-.61-1.89-.09-.29-.18-.57-.26-.86-.19-.6-.36-1.21-.53-1.81l-.24-.86c-.17-.63-.33-1.27-.49-1.9l-.18-.72c-.21-.86-.4-1.73-.58-2.59h0c-.19-.87-.35-1.74-.51-2.61,0-.24-.07-.47-.11-.71-.11-.62-.2-1.24-.29-1.86,0-.3-.09-.61-.13-.92-.07-.55-.14-1.1-.2-1.64,0-.33-.07-.65-.1-1-.06-.53-.11-1.07-.15-1.61,0-.32,0-.63-.07-1q-.06-.85-.09-1.71c0-.27,0-.54,0-.81,0-.84,0-1.67,0-2.5S71.11,90,71.14,89.08ZM32.49,108.53C15.07,82.68,16.2,48.79,17.93,33.1,28.14,36,45.86,42.18,61.65,53.77a106.06,106.06,0,0,0-7.47,35.57v.06q0,1.16,0,2.31,0,1.5.06,3c0,.32,0,.65,0,1,0,.68.06,1.36.11,2,0,.38,0,.77.08,1.15,0,.63.1,1.26.17,1.89,0,.4.08.79.12,1.19.07.63.15,1.26.23,1.89L55.1,105c.1.68.21,1.36.32,2,0,.34.1.67.16,1q.26,1.51.57,3l.06.28c.19.92.39,1.85.61,2.77l.27,1.11c.17.65.33,1.3.5,2,.11.43.23.85.35,1.27.17.6.34,1.21.52,1.81.13.44.26.88.4,1.33s.38,1.18.57,1.77l.44,1.34c.21.61.43,1.23.65,1.84l.45,1.25q.45,1.22.93,2.43c.21.53.43,1,.64,1.58.28.68.56,1.36.85,2,.21.49.43,1,.65,1.46s.34.78.52,1.17l-.44.27C50.48,128.94,39.85,119.47,32.49,108.53Zm81.84,163.4H131.1a106.31,106.31,0,0,0-10.23,41.58c0,.1,0,.21,0,.31,0,1.33-.08,2.66-.08,4s0,2.57.07,3.84c0,.35,0,.71.05,1.06,0,1.07.11,2.14.19,3.2,0,.23,0,.46,0,.69.1,1.21.23,2.41.37,3.61,0,.43.1.87.16,1.31.11.83.23,1.67.36,2.5.07.45.13.9.21,1.35.17,1.07.37,2.12.58,3.18.12.62.26,1.25.4,1.87s.23,1,.35,1.55q.86,3.72,2,7.38c0,.11.07.22.1.33.22.68.42,1.37.65,2L116.1,404.48c-1.76,9.08-8.87,12.32-14.93,12.32S88,413.56,86.24,404.48L72,331.06H92.08a8.47,8.47,0,1,0,0-16.94H68.73L48.9,211.79h52.2a8.48,8.48,0,0,0,0-16.95h-54a53.85,53.85,0,0,1,22-41.07l.39-.26a53.59,53.59,0,0,1,9.72-5.57h0c1-.43,1.92-.82,2.88-1.18l.45-.17,1-.37c.65-.22,1.31-.44,2-.64h0a53.93,53.93,0,0,1,31.13,0h0c.67.2,1.32.42,2,.64l1,.37.45.17c1,.36,1.92.75,2.89,1.18h0a53.26,53.26,0,0,1,9.72,5.57l.4.26a53.9,53.9,0,0,1,21,53.86l-7.84,40.44,0,0c-.08.1-.15.2-.23.29-.82,1-1.61,2-2.39,3l-.07.09q-1.33,1.74-2.59,3.51H114.33a8.47,8.47,0,1,0,0,16.94ZM248.19,416.8c-49.49,0-91.48-29.31-105.49-69.58,0,0,0,0,0-.06q-.69-2-1.29-4l-.33-1.16c-.17-.59-.34-1.19-.49-1.79-.22-.86-.43-1.73-.63-2.59-.11-.49-.21-1-.32-1.47-.14-.67-.27-1.34-.39-2-.08-.39-.15-.78-.22-1.18-.17-1-.33-2-.46-3-.05-.36-.1-.72-.14-1.08-.12-.95-.23-1.9-.31-2.85,0-.17,0-.34,0-.5-.1-1.11-.16-2.23-.22-3.35l0-.86c-.05-1.15-.08-2.3-.08-3.45s0-2.36.08-3.53c0-.52,0-1,.08-1.56s.07-1.08.11-1.61c2.23-29,18.82-55.74,44.6-72.9l33,2.69c-35.86,11.72-61,42.14-61,76.91a72.72,72.72,0,0,0,1.12,12.68,8.47,8.47,0,1,0,16.68-3,55.41,55.41,0,0,1-.86-9.72c0-31.34,26.63-58.3,62.53-64l7.71,8.76a8.45,8.45,0,0,0,12.71,0l18.52-21,40.73-3.32c27.76,18.48,44.87,48.07,44.87,79.6C358.67,372.39,309.11,416.8,248.19,416.8Z"/></g></g></g></svg>