<svg xmlns="http://www.w3.org/2000/svg" viewBox="0 0 384.22 466.42"><defs><style>.cls-1{opacity:0.49;}.cls-2{fill:#ff860d;stroke:#f7931e;stroke-miterlimit:10;stroke-width:26px;}.cls-3{fill:#107878;}</style></defs><g id="Layer_2" data-name="Layer 2"><g id="Layer_1-2" data-name="Layer 1"><g id="zamek"><g class="cls-1"><path class="cls-2" d="M368.67,165.72,294.41,94V81.4L329.74,65a8.34,8.34,0,0,0,.38-15L290.06,29l0,0L290,29l-.16-.08c-.19-.09-.37-.18-.57-.26l-.28-.1-.48-.17-.4-.1c-.13,0-.25-.07-.39-.09l-.52-.08-.28,0q-.31,0-.63,0H286c-.22,0-.43,0-.64,0l-.21,0a4,4,0,0,0-.48.07,8.33,8.33,0,0,0-2.44.8l-.16.08-.31.19-.39.23-.06,0a8,8,0,0,0-1.94,1.87c-.09.12-.19.24-.27.36l-.12.2c-.11.17-.22.35-.32.53v0a1.11,1.11,0,0,0-.07.16,5.94,5.94,0,0,0-.27.57c0,.09-.06.18-.1.27s-.12.33-.17.5-.06.25-.09.37-.07.27-.1.41-.05.33-.07.49,0,.21-.05.32,0,.39,0,.59,0,.13,0,.2V94l-74.26,71.7a8.34,8.34,0,0,0,5.79,14.34h16.68l-4,72.55H208.36A8.35,8.35,0,0,0,200,261v27.15H162.66V261a8.35,8.35,0,0,0-8.34-8.35H138.85V190.24a8.34,8.34,0,1,0-16.68,0v8H105.1v-8a8.34,8.34,0,1,0-16.67,0v8H71.36v-8a8.34,8.34,0,1,0-16.68,0v16.1l-5,71.79L38,444.5a8.34,8.34,0,0,0,8.32,8.92h305.3a8.34,8.34,0,0,0,8.33-8.78l-13.8-264.58h16.71a8.34,8.34,0,0,0,5.79-14.34ZM294.41,50.15l13,6.84-13,6Zm-8.34,59,56.16,54.23H229.91ZM105.49,261v35.29L98.75,436.74H55.28L65.75,287.05H77.86a8.35,8.35,0,0,0,0-16.69h-11L70.79,215h51.38v37.63h-8.34A8.35,8.35,0,0,0,105.49,261ZM205,436.74h-49.2V377.42a20.26,20.26,0,0,1,20.24-20.24h8.73A20.25,20.25,0,0,1,205,377.42v59.32Zm16.67,0V377.42a37,37,0,0,0-36.91-36.93h-8.72a37,37,0,0,0-36.91,36.93v59.32H115.45l6.71-139.89c0-.13,0-.27,0-.4V269.3H146v27.15a8.33,8.33,0,0,0,8.34,8.34h54a8.34,8.34,0,0,0,8.34-8.34V269.3h23.81v27.15c0,.13,0,.27,0,.4l6.71,139.89Zm42.22,0-6.73-140.49V261a8.34,8.34,0,0,0-8.34-8.35h-10.2l4-72.55h86.83l13.39,256.68Z"/><path class="cls-2" d="M288.5,197h-4.87a24.3,24.3,0,0,0-24.27,24.29v20.81a8.33,8.33,0,0,0,8.34,8.34h36.74a8.34,8.34,0,0,0,8.34-8.34V221.31A24.31,24.31,0,0,0,288.5,197Zm7.6,36.76H276V221.31h0a7.61,7.61,0,0,1,7.59-7.61h4.87a7.61,7.61,0,0,1,7.6,7.61v12.47Z"/></g><path class="cls-3" d="M330.67,137.72,256.41,66V53.4L291.74,37a8.34,8.34,0,0,0,.38-14.95L252.06,1l0,0L252,1l-.16-.08c-.19-.09-.37-.18-.57-.26l-.28-.1-.48-.17-.4-.1c-.13,0-.25-.07-.39-.09l-.52-.08-.28,0-.63,0H248c-.22,0-.43,0-.64,0l-.21,0a4,4,0,0,0-.48.07,8.33,8.33,0,0,0-2.44.8l-.16.08-.31.19-.39.23-.06.05a8,8,0,0,0-1.94,1.87c-.09.12-.19.24-.27.36l-.12.2c-.11.17-.22.35-.32.53,0,0,0,0,0,0a1.11,1.11,0,0,0-.07.16,5.94,5.94,0,0,0-.27.57c0,.09-.06.18-.1.27s-.12.33-.17.5-.06.25-.09.37-.07.27-.1.41,0,.33-.07.49,0,.21,0,.32,0,.39,0,.59,0,.13,0,.2V66l-74.26,71.7a8.34,8.34,0,0,0,5.79,14.34h16.68l-4,72.55H170.36A8.35,8.35,0,0,0,162,233v27.15H124.66V233a8.35,8.35,0,0,0-8.34-8.35H100.85V162.24a8.34,8.34,0,1,0-16.68,0v8H67.1v-8a8.34,8.34,0,1,0-16.67,0v8H33.36v-8a8.34,8.34,0,1,0-16.68,0v16.1l-5,71.79L0,416.5a8.34,8.34,0,0,0,8.32,8.92h305.3a8.34,8.34,0,0,0,8.33-8.78l-13.8-264.58h16.71a8.34,8.34,0,0,0,5.79-14.34ZM256.41,22.15l13,6.84-13,6Zm-8.34,59,56.16,54.23H191.91ZM67.49,233v35.29L60.75,408.74H17.28L27.75,259.05H39.86a8.35,8.35,0,0,0,0-16.69H28.91L32.79,187H84.17v37.63H75.83A8.35,8.35,0,0,0,67.49,233ZM167,408.74h-49.2V349.42a20.26,20.26,0,0,1,20.24-20.24h8.73A20.25,20.25,0,0,1,167,349.42v59.32Zm16.67,0V349.42a37,37,0,0,0-36.91-36.93h-8.72a37,37,0,0,0-36.91,36.93v59.32H77.45l6.71-139.89c0-.13,0-.27,0-.4V241.3H108v27.15a8.33,8.33,0,0,0,8.34,8.34h54a8.34,8.34,0,0,0,8.34-8.34V241.3h23.81v27.15c0,.13,0,.27,0,.4l6.71,139.89Zm42.22,0-6.73-140.49V233a8.34,8.34,0,0,0-8.34-8.35h-10.2l4-72.55h86.83l13.39,256.68Z"/><path class="cls-3" d="M250.5,169h-4.87a24.3,24.3,0,0,0-24.27,24.29v20.81a8.33,8.33,0,0,0,8.34,8.34h36.74a8.34,8.34,0,0,0,8.34-8.34V193.31A24.31,24.31,0,0,0,250.5,169Zm7.6,36.76H238V193.31h0a7.61,7.61,0,0,1,7.59-7.61h4.87a7.61,7.61,0,0,1,7.6,7.61v12.47Z"/></g></g></g></svg>